<svg width="33" height="38" viewBox="0 0 33 38" fill="none" xmlns="http://www.w3.org/2000/svg">
<path d="M32.0464 12.2692C30.1236 3.80894 22.7438 0 16.2613 0C16.2613 0 16.2613 0 16.243 0C9.77869 0 2.38055 3.79063 0.457766 12.2509C-1.68477 21.7 4.1019 29.7024 9.3392 34.7383C11.2803 36.6062 13.7708 37.5401 16.2613 37.5401C18.7517 37.5401 21.2422 36.6062 23.165 34.7383C28.4023 29.7024 34.189 21.7183 32.0464 12.2692ZM16.2613 21.4436C13.0749 21.4436 10.4929 18.8616 10.4929 15.6753C10.4929 12.4889 13.0749 9.90692 16.2613 9.90692C19.4476 9.90692 22.0296 12.4889 22.0296 15.6753C22.0296 18.8616 19.4476 21.4436 16.2613 21.4436Z" fill="#FF6C4B"/>
</svg>
