<svg width="84" height="84" viewBox="0 0 84 84" fill="none" xmlns="http://www.w3.org/2000/svg">
<path d="M37.9961 75.9923C17.0301 75.9923 0 58.9622 0 37.9961C0 17.0301 17.0301 0 37.9961 0C58.9622 0 75.9923 17.0301 75.9923 37.9961C75.9923 58.9622 58.9622 75.9923 37.9961 75.9923ZM37.9961 5.84556C20.2646 5.84556 5.84556 20.2646 5.84556 37.9961C5.84556 55.7277 20.2646 70.1467 37.9961 70.1467C55.7277 70.1467 70.1467 55.7277 70.1467 37.9961C70.1467 20.2646 55.7277 5.84556 37.9961 5.84556Z" fill="#292D32"/>
<path d="M73.6934 83.9422C73.3816 83.9422 73.0698 83.9033 72.797 83.8643C70.9654 83.6305 67.6529 82.3834 65.7824 76.8107C64.8081 73.8879 65.1588 70.9651 66.7566 68.7438C68.3544 66.5225 71.0434 65.2754 74.122 65.2754C78.097 65.2754 81.2146 66.7953 82.6176 69.4842C84.0205 72.1732 83.6308 75.6026 81.4095 78.9151C78.6426 83.0849 75.6419 83.9422 73.6934 83.9422ZM71.3551 74.9791C72.0176 77.0055 72.9529 78.0187 73.5764 78.0967C74.2 78.1746 75.3691 77.4342 76.5772 75.6805C77.7073 74.0048 77.7852 72.7967 77.5125 72.2511C77.2397 71.7055 76.1485 71.121 74.122 71.121C72.9139 71.121 72.0176 71.5107 71.511 72.1732C71.0434 72.8357 70.9654 73.8489 71.3551 74.9791Z" fill="#292D32"/>
</svg>
